<?xml version="1.0" encoding="UTF-8"?>
<svg xmlns="http://www.w3.org/2000/svg" xmlns:xlink="http://www.w3.org/1999/xlink" width="443.6556pt" height="347.7981pt" viewBox="0 0 443.6556 347.7981">
<defs>
<clipPath id="clip-0">
<path clip-rule="nonzero" d="M 283 251 L 443.65625 251 L 443.65625 339 L 283 339 Z M 283 251 "/>
</clipPath>
</defs>
<path fill-rule="evenodd" fill="rgb(39.634705%, 70.259094%, 46.913147%)" fill-opacity="1" d="M 232.769531 45.769531 C 237.261719 50.089844 242.242188 53.863281 247.542969 57.136719 C 252.84375 53.859375 257.832031 50.085938 262.324219 45.761719 C 257.132812 39.449219 252.941406 32.476562 249.761719 24.964844 L 260.996094 24.964844 C 263.289062 29.625 266.054688 34.015625 269.28125 38.101562 C 272.507812 34.015625 275.273438 29.625 277.566406 24.964844 L 288.800781 24.964844 C 285.507812 32.75 281.125 39.949219 275.652344 46.457031 L 272.792969 49.6875 C 268.257812 54.558594 263.179688 58.878906 257.71875 62.679688 C 259.21875 63.398438 260.738281 64.089844 262.265625 64.746094 C 280.511719 56.164062 298.726562 43.664062 307.464844 24.964844 L 318.566406 24.964844 C 311.195312 44.1875 295.707031 57.96875 278.042969 68.0625 C 270.839844 72.1875 263.59375 75.375 255.953125 78.601562 L 254.914062 79.035156 C 249.707031 81.097656 244.425781 82.96875 239.097656 84.695312 C 236.082031 85.671875 233.054688 86.613281 230.011719 87.5 C 229.65625 87.605469 228.519531 88.089844 228.128906 88.441406 C 229.707031 91.957031 239.519531 91.75 242.582031 91.835938 C 251.175781 91.804688 260.414062 96.148438 267.074219 101.375 L 267.441406 101.667969 L 267.394531 102.136719 C 267.050781 105.367188 266.242188 108.550781 264.675781 111.417969 L 264.152344 112.378906 L 263.347656 111.632812 C 258.285156 106.914062 249.722656 102.03125 242.601562 102.054688 L 242.460938 102.054688 C 233.550781 101.8125 221.417969 101.492188 218.25 91.152344 C 216.285156 84.742188 221.324219 79.394531 227.144531 77.691406 C 230.09375 76.828125 233.027344 75.917969 235.949219 74.972656 C 240.578125 73.472656 245.175781 71.863281 249.714844 70.101562 C 248.855469 69.65625 248.003906 69.199219 247.152344 68.730469 L 244.019531 66.945312 C 235.964844 62.179688 228.546875 56.425781 222.164062 49.542969 L 219.429688 46.453125 C 213.960938 39.957031 209.582031 32.753906 206.289062 24.964844 L 217.519531 24.964844 C 219.816406 29.628906 222.585938 34.027344 225.816406 38.117188 C 229.046875 34.027344 231.8125 29.628906 234.113281 24.964844 L 245.339844 24.964844 C 242.164062 32.480469 237.96875 39.457031 232.769531 45.769531 M 166.429688 188.121094 C 170.152344 185.441406 174.417969 183.351562 178.6875 181.78125 C 182.328125 180.4375 184.113281 177.546875 184.511719 173.824219 L 184.511719 167.058594 C 184.511719 164.246094 186.804688 161.949219 189.621094 161.949219 C 192.398438 161.949219 194.671875 164.171875 194.730469 166.964844 L 194.730469 170.632812 C 194.730469 175.757812 198.882812 179.910156 204.007812 179.910156 C 209.128906 179.910156 213.28125 175.753906 213.28125 170.632812 L 213.28125 162.035156 C 213.339844 159.441406 215.335938 157.296875 217.996094 157.054688 L 218.867188 157.058594 C 221.449219 157.296875 223.445312 159.441406 223.5 162.054688 L 223.5 170.089844 C 223.5 175.210938 227.65625 179.363281 232.777344 179.363281 C 234.199219 179.363281 235.492188 179.074219 236.773438 178.460938 C 240 176.921875 242.050781 173.667969 242.050781 170.089844 L 242.050781 160.589844 C 242.109375 157.945312 244.1875 155.773438 246.84375 155.601562 L 247.25 155.59375 C 249.992188 155.636719 252.210938 157.847656 252.269531 160.609375 L 252.269531 168.3125 C 252.269531 168.582031 252.425781 169.507812 252.664062 169.652344 C 255.195312 167.363281 257.472656 164.792969 259.480469 162.035156 C 266.09375 152.933594 269.660156 141.964844 270.53125 130.804688 L 270.558594 130.476562 L 272.199219 128.921875 C 274.730469 126.519531 277.117188 123.863281 279.011719 120.921875 L 280.15625 119.140625 L 280.5625 121.222656 C 280.824219 122.578125 280.964844 123.957031 280.964844 125.335938 C 280.964844 140.507812 276.714844 155.695312 267.75 168.039062 C 262.984375 174.597656 256.898438 180.269531 249.78125 184.242188 L 245.957031 186.242188 C 237.089844 190.226562 234.15625 198.226562 234.15625 207.453125 L 234.15625 239.902344 L 223.9375 239.902344 L 223.9375 207.453125 C 223.9375 197.609375 220.679688 190.125 213.246094 190.125 L 191.335938 190.125 C 176.527344 190.125 166.285156 198.722656 166.429688 213.964844 L 166.476562 219.085938 L 166.421875 219.085938 L 166.421875 239.902344 L 156.203125 239.902344 L 156.203125 188.988281 C 156.203125 173.816406 160.453125 158.628906 169.417969 146.285156 C 177.222656 135.535156 188.484375 127.300781 201.714844 124.898438 C 204.269531 124.433594 206.867188 124.199219 209.464844 124.199219 L 245.832031 124.199219 C 253.761719 124.199219 261.574219 121.84375 266.398438 115.183594 C 268.164062 112.75 269.753906 108.753906 270.269531 105.785156 L 270.28125 105.746094 C 271.839844 96.875 268.988281 87.316406 264.058594 79.933594 L 263.496094 79.089844 L 264.425781 78.679688 C 267.035156 77.535156 269.632812 76.347656 272.183594 75.070312 L 272.871094 74.722656 L 273.285156 75.375 C 279.382812 85.015625 282.402344 97.027344 280.15625 108.34375 C 280.007812 109.089844 279.835938 109.835938 279.648438 110.542969 C 278.128906 117.203125 274.738281 121.824219 269.855469 126.449219 L 269.625 126.667969 C 265.855469 129.820312 261.511719 131.882812 256.898438 133.078125 C 254.0625 134.574219 252.628906 137.214844 252.273438 140.5 L 252.273438 145.71875 C 252.273438 148.53125 249.980469 150.828125 247.164062 150.828125 C 244.386719 150.828125 242.117188 148.605469 242.054688 145.8125 L 242.054688 143.691406 C 242.054688 138.59375 237.945312 134.460938 232.859375 134.417969 L 232.699219 134.417969 C 227.613281 134.460938 223.503906 138.597656 223.503906 143.691406 L 223.503906 147.996094 C 223.449219 150.589844 221.449219 152.738281 218.789062 152.976562 L 217.921875 152.972656 C 215.339844 152.738281 213.339844 150.589844 213.285156 147.980469 L 213.285156 144.234375 C 213.285156 139.113281 209.132812 134.960938 204.007812 134.960938 C 203.804688 134.960938 203.601562 134.964844 203.402344 134.980469 C 202.414062 135.164062 201.433594 135.390625 200.472656 135.65625 C 200.320312 135.71875 200.167969 135.789062 200.015625 135.863281 C 196.789062 137.402344 194.734375 140.65625 194.734375 144.234375 L 194.734375 153.324219 C 194.675781 155.972656 192.597656 158.140625 189.941406 158.3125 L 189.539062 158.320312 C 186.792969 158.277344 184.574219 156.066406 184.515625 153.304688 L 184.515625 144.664062 C 181.980469 146.953125 179.691406 149.53125 177.6875 152.289062 C 170.164062 162.644531 166.585938 175.40625 166.429688 188.121094 M 259.84375 228.671875 L 271.210938 228.671875 C 272.460938 225.84375 273.921875 223.132812 275.582031 220.558594 C 277.890625 216.972656 280.578125 213.65625 283.585938 210.664062 C 282.300781 207.152344 280.742188 203.777344 278.9375 200.558594 C 274.507812 192.667969 268.585938 185.726562 261.550781 180.121094 C 258.816406 182.558594 255.851562 184.742188 252.679688 186.628906 C 260.539062 192.285156 266.949219 199.828125 271.25 208.597656 C 266.40625 214.550781 262.523438 221.320312 259.84375 228.671875 M 184.136719 239.902344 L 184.136719 207.453125 C 184.136719 202.988281 183.449219 198.808594 181.734375 195.238281 C 184.550781 194.179688 187.785156 193.640625 191.335938 193.640625 L 197.617188 193.640625 C 195.269531 197.542969 194.355469 202.304688 194.355469 207.453125 L 194.355469 239.902344 Z M 184.136719 239.902344 "/>
<path fill-rule="nonzero" fill="rgb(100%, 100%, 100%)" fill-opacity="1" d="M 400.179688 265.839844 C 394.855469 265.839844 389.847656 267.160156 385.242188 269.832031 C 380.601562 272.519531 376.984375 276.230469 374.355469 280.902344 C 371.699219 285.628906 370.382812 290.746094 370.382812 296.167969 C 370.382812 303.96875 373.679688 310.476562 379.144531 315.90625 C 385.070312 321.800781 392.300781 324.601562 400.632812 324.601562 C 408.71875 324.601562 415.894531 322.0625 421.863281 316.542969 C 427.855469 311 430.609375 304.003906 430.609375 295.898438 C 430.609375 287.589844 427.785156 280.398438 421.875 274.523438 C 415.894531 268.582031 408.566406 265.839844 400.179688 265.839844 M 400.398438 272.757812 C 404.539062 272.757812 408.410156 273.820312 411.996094 275.878906 C 415.539062 277.910156 418.40625 280.679688 420.441406 284.234375 C 422.5 287.824219 423.4375 291.765625 423.4375 295.898438 C 423.4375 299.625 422.265625 303.132812 420.441406 306.351562 C 418.429688 309.902344 415.617188 312.671875 412.074219 314.695312 C 408.464844 316.753906 404.554688 317.765625 400.398438 317.765625 C 394.277344 317.765625 388.855469 315.882812 384.277344 311.773438 C 379.648438 307.621094 377.628906 302.320312 377.628906 296.167969 C 377.628906 291.972656 378.566406 287.984375 380.628906 284.320312 C 382.640625 280.742188 385.472656 277.933594 389.023438 275.875 C 392.539062 273.839844 396.328125 272.757812 400.398438 272.757812 M 297.914062 266.679688 L 297.914062 323.957031 L 320.664062 323.957031 C 325.738281 323.957031 330.582031 322.675781 334.34375 319.121094 C 337.757812 315.890625 339.488281 311.90625 339.488281 307.203125 C 339.488281 304.972656 339.054688 302.792969 338.113281 300.769531 C 337.199219 298.8125 335.925781 297.113281 334.273438 295.71875 C 333.3125 294.90625 332.222656 294.238281 331.101562 293.671875 L 329.042969 292.628906 L 330.730469 291.058594 C 331.632812 290.214844 332.414062 289.257812 333.046875 288.191406 C 334.355469 286 334.976562 283.601562 334.976562 281.054688 C 334.976562 278.316406 334.265625 275.773438 332.8125 273.453125 C 331.359375 271.136719 329.363281 269.425781 326.863281 268.320312 C 323.761719 266.949219 319.726562 266.679688 316.367188 266.679688 Z M 304.789062 297.066406 L 313.960938 297.066406 C 317.027344 297.066406 320.734375 297.003906 323.703125 297.710938 C 326.136719 298.292969 328.359375 299.390625 330.023438 301.296875 C 331.527344 303.027344 332.28125 305.027344 332.28125 307.316406 C 332.28125 309.199219 331.730469 310.910156 330.667969 312.460938 C 329.582031 314.042969 328.164062 315.191406 326.394531 315.941406 C 323.96875 316.96875 320.367188 317.09375 317.734375 317.09375 L 304.789062 317.09375 Z M 304.789062 273.554688 L 317.269531 273.554688 C 319.867188 273.554688 323.273438 273.867188 325.347656 275.566406 C 327.074219 276.980469 327.765625 278.867188 327.765625 281.054688 C 327.765625 282.804688 327.28125 284.398438 326.285156 285.835938 C 325.269531 287.304688 323.917969 288.328125 322.265625 288.992188 C 319.929688 289.933594 316.519531 290.035156 314.003906 290.035156 L 304.789062 290.035156 Z M 351.460938 324.109375 L 358.449219 324.109375 L 358.449219 266.820312 L 351.460938 266.820312 Z M 351.460938 324.109375 "/>
<g clip-path="url(#clip-0)">
<path fill="none" stroke-width="1" stroke-linecap="butt" stroke-linejoin="miter" stroke="rgb(98.442078%, 98.684692%, 98.754883%)" stroke-opacity="1" stroke-miterlimit="10" d="M -0.0009125 0.00175625 C -5.325131 0.00175625 -10.332944 -1.318556 -14.938412 -3.990431 C -19.579037 -6.677931 -23.196225 -10.388869 -25.825131 -15.060744 C -28.481381 -19.787306 -29.797787 -24.904494 -29.797787 -30.326369 C -29.797787 -38.12715 -26.500912 -44.634963 -21.036069 -50.06465 C -15.110287 -55.959181 -7.879819 -58.759963 0.452213 -58.759963 C 8.53815 -58.759963 15.713931 -56.2209 21.682681 -50.701369 C 27.674869 -45.1584 30.428775 -38.162306 30.428775 -30.056838 C 30.428775 -21.748244 27.604556 -14.556838 21.6944 -8.681838 C 15.713931 -2.740431 8.385806 0.00175625 -0.0009125 0.00175625 Z M 0.217838 -6.916213 C 4.358463 -6.916213 8.229556 -7.978713 11.815494 -10.037306 C 15.358463 -12.068556 18.22565 -14.838088 20.260806 -18.392775 C 22.3194 -21.982619 23.2569 -25.924025 23.2569 -30.056838 C 23.2569 -33.7834 22.085025 -37.291213 20.260806 -40.509963 C 18.249088 -44.060744 15.436588 -46.830275 11.893619 -48.853713 C 8.284244 -50.912306 4.374088 -51.924025 0.217838 -51.924025 C -5.903256 -51.924025 -11.325131 -50.041213 -15.903256 -45.931838 C -20.532162 -41.779494 -22.551694 -36.478713 -22.551694 -30.326369 C -22.551694 -26.131056 -21.614194 -22.142775 -19.551694 -18.478713 C -17.539975 -14.900588 -14.707944 -12.091994 -11.157162 -10.0334 C -7.641537 -7.998244 -3.852475 -6.916213 0.217838 -6.916213 Z M -102.266537 -0.838088 L -102.266537 -58.115431 L -79.516537 -58.115431 C -74.442319 -58.115431 -69.598569 -56.834181 -65.83685 -53.279494 C -62.422787 -50.049025 -60.692319 -46.06465 -60.692319 -41.361525 C -60.692319 -39.131056 -61.125912 -36.951369 -62.067319 -34.927931 C -62.981381 -32.9709 -64.254819 -31.271681 -65.907162 -29.87715 C -66.8681 -29.06465 -67.957944 -28.396681 -69.079037 -27.830275 L -71.137631 -26.787306 L -69.450131 -25.216994 C -68.547787 -24.373244 -67.766537 -23.416213 -67.133725 -22.349806 C -65.825131 -20.1584 -65.204037 -17.759963 -65.204037 -15.213088 C -65.204037 -12.474806 -65.914975 -9.931838 -67.3681 -7.611525 C -68.821225 -5.295119 -70.817319 -3.584181 -73.317319 -2.478713 C -76.418881 -1.107619 -80.454037 -0.838088 -83.813412 -0.838088 Z M -95.391537 -31.224806 L -86.219662 -31.224806 C -83.153256 -31.224806 -79.446225 -31.162306 -76.477475 -31.869338 C -74.043881 -32.451369 -71.821225 -33.549025 -70.157162 -35.455275 C -68.653256 -37.185744 -67.89935 -39.185744 -67.89935 -41.474806 C -67.89935 -43.357619 -68.450131 -45.068556 -69.512631 -46.619338 C -70.598569 -48.201369 -72.016537 -49.349806 -73.786069 -50.099806 C -76.21185 -51.12715 -79.813412 -51.25215 -82.446225 -51.25215 L -95.391537 -51.25215 Z M -95.391537 -7.713088 L -82.911069 -7.713088 C -80.313412 -7.713088 -76.907162 -8.025588 -74.832944 -9.724806 C -73.106381 -11.138869 -72.414975 -13.025588 -72.414975 -15.213088 C -72.414975 -16.963088 -72.89935 -18.556838 -73.895444 -19.994338 C -74.911069 -21.463088 -76.262631 -22.486525 -77.914975 -23.150588 C -80.250912 -24.091994 -83.661069 -24.193556 -86.176694 -24.193556 L -95.391537 -24.193556 Z M -48.719662 -58.267775 L -41.731381 -58.267775 L -41.731381 -0.978713 L -48.719662 -0.978713 Z M -48.719662 -58.267775 " transform="matrix(1, 0, 0, -1, 400.1806, 265.8416)"/>
</g>
<path fill-rule="nonzero" fill="rgb(100%, 100%, 100%)" fill-opacity="1" stroke-width="1" stroke-linecap="butt" stroke-linejoin="miter" stroke="rgb(98.442078%, 98.684692%, 98.754883%)" stroke-opacity="1" stroke-miterlimit="10" d="M 0.00060625 -0.0001 L 0.00060625 37.335837 L 9.727169 37.335837 L 9.727169 -20.746194 L 5.258419 -20.746194 L -26.800175 16.081931 L -26.800175 -20.746194 L -36.823612 -20.746194 L -36.823612 37.335837 L -32.429081 37.335837 Z M 0.00060625 -0.0001 " transform="matrix(1, 0, 0, -1, 199.5658, 303.7499)"/>
<path fill-rule="nonzero" fill="rgb(100%, 100%, 100%)" fill-opacity="1" stroke-width="1" stroke-linecap="butt" stroke-linejoin="miter" stroke="rgb(98.442078%, 98.684692%, 98.754883%)" stroke-opacity="1" stroke-miterlimit="10" d="M 0.0016125 -0.00078125 L 9.798488 -0.00078125 L 9.798488 -34.590625 C 9.798488 -36.54375 9.696925 -39.5125 10.028956 -41.504688 C 10.220363 -43.016406 10.646144 -44.559375 11.509425 -45.832813 C 12.3688 -47.090625 13.732081 -47.977344 15.08755 -48.621875 C 16.71255 -49.391406 18.4313 -49.836719 20.232081 -49.836719 L 20.513331 -49.836719 L 20.790675 -49.910938 C 22.595363 -50.375781 25.196925 -49.879688 26.96255 -49.434375 C 28.544581 -49.039844 30.954738 -48.250781 31.950831 -46.848438 C 32.911769 -45.492969 33.575831 -43.989063 34.009425 -42.340625 C 34.552394 -40.430469 34.505519 -36.590625 34.505519 -34.590625 L 34.505519 -0.00078125 L 44.3063 -0.00078125 L 44.3063 -34.590625 C 44.3063 -38.60625 44.009425 -43.051563 42.778956 -46.895313 C 41.630519 -50.48125 39.364894 -53.379688 36.411769 -55.676563 C 32.278956 -58.891406 25.564113 -59.41875 20.528956 -59.41875 C 16.107081 -59.41875 11.857081 -58.41875 8.165675 -55.926563 C 4.751613 -53.621875 2.33755 -50.516406 1.110988 -46.571094 C 0.0523938 -43.176563 0.0016125 -38.133594 0.0016125 -34.590625 Z M 0.0016125 -0.00078125 " transform="matrix(1, 0, 0, -1, 106.5062, 265.55)"/>
<path fill-rule="nonzero" fill="rgb(100%, 100%, 100%)" fill-opacity="1" stroke-width="1" stroke-linecap="butt" stroke-linejoin="miter" stroke="rgb(98.442078%, 98.684692%, 98.754883%)" stroke-opacity="1" stroke-miterlimit="10" d="M -0.001525 0.00105625 L -25.521056 0.00105625 L -29.442931 -8.295819 L -31.314025 -12.256756 L -42.228088 -12.256756 L -14.782775 45.813556 L -10.649963 45.813556 L 16.404725 -12.256756 L 5.799256 -12.256756 L 3.92035 -8.311444 L 3.924256 -8.311444 Z M -20.935119 9.7159 L -4.587463 9.7159 L -9.919494 21.012775 L -12.7359 27.0284 L -18.466369 14.99715 L -18.442931 14.99715 Z M -20.935119 9.7159 " transform="matrix(1, 0, 0, -1, 83.3609, 312.0909)"/>
<path fill-rule="nonzero" fill="rgb(100%, 100%, 100%)" fill-opacity="1" stroke-width="1" stroke-linecap="butt" stroke-linejoin="miter" stroke="rgb(98.442078%, 98.684692%, 98.754883%)" stroke-opacity="1" stroke-miterlimit="10" d="M -0.00165625 0.00105625 L -25.49775 0.00105625 L -30.173531 -9.901288 L -31.290719 -12.256756 L -42.200875 -12.256756 L -14.759469 45.813556 L -10.626656 45.813556 L 16.431937 -12.256756 L 5.826469 -12.256756 L 1.303031 -2.760663 Z M -20.911813 9.7159 L -4.587594 9.7159 L -7.079781 14.99715 L -12.712594 27.0284 L -18.439156 14.99715 L -18.415719 14.99715 Z M -20.911813 9.7159 " transform="matrix(1, 0, 0, -1, 258.029, 312.0909)"/>
<path fill-rule="nonzero" fill="rgb(100%, 100%, 100%)" fill-opacity="1" stroke-width="1" stroke-linecap="butt" stroke-linejoin="miter" stroke="rgb(98.442078%, 98.684692%, 98.754883%)" stroke-opacity="1" stroke-miterlimit="10" d="M -0.0010875 0.000575 L -0.0010875 -12.347081 L 14.358288 -12.347081 L 14.358288 -22.061925 L -0.0010875 -22.061925 L -0.0010875 -48.354894 L -9.801869 -48.354894 L -9.801869 9.727137 L 24.198131 9.727137 L 24.198131 0.000575 Z M -0.0010875 0.000575 " transform="matrix(1, 0, 0, -1, 18.8214, 276.1412)"/>
</svg>